<svg width="30" height="30" viewBox="0 0 30 30" fill="none" xmlns="http://www.w3.org/2000/svg">
<path fill-rule="evenodd" clip-rule="evenodd" d="M4.39502 4.395C7.11002 1.68 10.86 0 15 0C19.14 0 22.89 1.68 25.605 4.395L21.363 8.637C19.734 7.008 17.484 6 15 6C12.516 6 10.266 7.008 8.63702 8.637L4.39502 4.395Z" fill="#EB4134"/>
<path fill-rule="evenodd" clip-rule="evenodd" d="M21.363 21.363L25.605 25.605C22.89 28.32 19.14 30 15 30C10.86 30 7.11002 28.32 4.39502 25.605L8.63702 21.363C10.266 22.992 12.516 24 15 24C17.484 24 19.734 22.992 21.363 21.363Z" fill="#34AA51"/>
<path fill-rule="evenodd" clip-rule="evenodd" d="M4.395 4.395L8.637 8.637C7.008 10.266 6 12.516 6 15C6 17.484 7.008 19.734 8.637 21.363L4.395 25.605C1.68 22.89 0 19.14 0 15C0 10.86 1.68 7.11 4.395 4.395Z" fill="#FBBE04"/>
<path fill-rule="evenodd" clip-rule="evenodd" d="M15 12H29.7C29.8965 12.969 30 13.9725 30 15C30 16.0275 29.8965 17.031 29.7 18C29.1015 20.937 27.6465 23.5635 25.605 25.605L21.363 21.363C22.302 20.424 23.0355 19.278 23.487 18H15V12Z" fill="#4186F7"/>
</svg>
